<?xml version="1.0" encoding="UTF-8" standalone="no"?><svg width="21" height="22" viewBox="0 0 21 22" fill="none" xmlns="http://www.w3.org/2000/svg">
<g clip-path="url(#clip0_638_490)">
<path d="M10.7144 21.1428C13.4424 21.1428 16.0586 20.0592 17.9875 18.1302C19.9165 16.2013 21.0002 13.5851 21.0002 10.8571C21.0002 8.12919 19.9165 5.51297 17.9875 3.58403C16.0586 1.65508 13.4424 0.571411 10.7144 0.571411C7.98649 0.571411 5.37028 1.65508 3.44133 3.58403C1.51238 5.51297 0.428711 8.12919 0.428711 10.8571C0.428711 13.5851 1.51238 16.2013 3.44133 18.1302C5.37028 20.0592 7.98649 21.1428 10.7144 21.1428V21.1428ZM11.9101 9.0417L10.6244 15.091C10.5344 15.5281 10.6617 15.7763 11.0153 15.7763C11.2647 15.7763 11.6414 15.6863 11.8973 15.46L11.7841 15.9948C11.4151 16.4397 10.6013 16.7637 9.90057 16.7637C8.99672 16.7637 8.61229 16.2211 8.86172 15.0678L9.81057 10.609C9.89286 10.2323 9.81829 10.096 9.44157 10.0047L8.86172 9.90056L8.96714 9.4107L11.9114 9.0417H11.9101ZM10.7144 7.64284C10.3734 7.64284 10.0464 7.50738 9.80529 7.26626C9.56418 7.02515 9.42872 6.69812 9.42872 6.35713C9.42872 6.01613 9.56418 5.68911 9.80529 5.44799C10.0464 5.20687 10.3734 5.07141 10.7144 5.07141C11.0554 5.07141 11.3825 5.20687 11.6236 5.44799C11.8647 5.68911 12.0001 6.01613 12.0001 6.35713C12.0001 6.69812 11.8647 7.02515 11.6236 7.26626C11.3825 7.50738 11.0554 7.64284 10.7144 7.64284V7.64284Z" fill="#042C16"/>
</g>
<defs>
<clipPath id="clip0_638_490">
<rect width="20.5714" height="20.5714" fill="white" transform="translate(0.428711 0.571411)"/>
</clipPath>
</defs>
</svg>
