<?xml version="1.0" encoding="UTF-8" standalone="no"?><svg width="139" height="77" viewBox="0 0 139 77" fill="none" xmlns="http://www.w3.org/2000/svg">
<g id="CAT COVID Logo">
<path d="M128.741 45.3378C129.767 45.3378 130.606 46.2477 130.606 47.3598C130.606 48.4718 129.767 49.3817 128.741 49.3817C127.715 49.3817 126.875 48.4718 126.875 47.3598C126.875 46.2477 127.715 45.3378 128.741 45.3378ZM128.741 27.1405C129.767 27.1405 130.606 28.0504 130.606 29.1624C130.606 30.2745 129.767 31.1844 128.741 31.1844C127.715 31.1844 126.875 30.2745 126.875 29.1624C126.875 28.0504 127.715 27.1405 128.741 27.1405ZM123.145 42.305C124.171 42.305 125.01 43.2148 125.01 44.3269C125.01 45.4389 124.171 46.3488 123.145 46.3488C122.119 46.3488 121.279 45.4389 121.279 44.3269C121.279 43.2148 122.119 42.305 123.145 42.305ZM120.347 36.2392C121.373 36.2392 122.212 37.149 122.212 38.2611C122.212 39.3732 121.373 40.283 120.347 40.283C119.321 40.283 118.481 39.3732 118.481 38.2611C118.481 37.149 119.321 36.2392 120.347 36.2392ZM123.145 30.1734C124.171 30.1734 125.01 31.0833 125.01 32.1953C125.01 33.3074 124.171 34.2172 123.145 34.2172C122.119 34.2172 121.279 33.3074 121.279 32.1953C121.279 31.0833 122.119 30.1734 123.145 30.1734ZM134.337 42.305C135.363 42.305 136.202 43.2148 136.202 44.3269C136.202 45.4389 135.363 46.3488 134.337 46.3488C133.311 46.3488 132.471 45.4389 132.471 44.3269C132.471 43.2148 133.311 42.305 134.337 42.305ZM137.135 36.2392C138.161 36.2392 139 37.149 139 38.2611C139 39.3732 138.161 40.283 137.135 40.283C136.109 40.283 135.269 39.3732 135.269 38.2611C135.269 37.149 136.109 36.2392 137.135 36.2392ZM134.337 30.1734C135.363 30.1734 136.202 31.0833 136.202 32.1953C136.202 33.3074 135.363 34.2172 134.337 34.2172C133.311 34.2172 132.471 33.3074 132.471 32.1953C132.471 31.0833 133.311 30.1734 134.337 30.1734Z" fill="#0A2942"/>
<path d="M83.4862 2.44964C83.4862 1.09724 84.6252 0 86.0409 0H94.5565C95.9723 0 97.1112 1.09724 97.1112 2.44964C97.1112 3.80205 95.9723 4.89929 94.5565 4.89929H92.8534V8.33083C96.1213 8.75748 99.1124 9.99046 101.614 11.8093L104.147 9.3852L102.944 8.2308C101.944 7.2734 101.944 5.72298 102.944 4.7666C103.945 3.8092 105.563 3.8092 106.553 4.7666L112.578 10.5437C113.578 11.4929 113.578 13.0444 112.578 14.0038C111.577 14.9632 109.959 14.9632 108.969 14.0038L107.756 12.8504L105.233 15.2797C107.128 17.6783 108.416 20.5464 108.863 23.6799H112.439V22.0468C112.439 20.6893 113.578 19.5971 114.994 19.5971C116.41 19.5971 117.549 20.6893 117.549 22.0468V30.2123C117.549 31.5698 116.41 32.6619 114.994 32.6619C113.578 32.6619 112.439 31.5698 112.439 30.2123V28.5792H108.863C108.416 31.7127 107.128 34.5808 105.233 36.9794L107.756 39.4086L108.969 38.2553C109.959 37.2958 111.577 37.2958 112.578 38.2553C113.578 39.2147 113.578 40.7662 112.578 41.7154L106.553 47.4925C105.563 48.4519 103.945 48.4519 102.944 47.4925C101.944 46.533 101.944 44.9816 102.944 44.0323L104.147 42.8688L101.614 40.4497C99.1124 42.2666 96.1213 43.5016 92.8534 43.9303V47.3598H94.5565C95.9723 47.3598 97.1112 48.4519 97.1112 49.8094C97.1112 51.1669 95.9723 52.2591 94.5565 52.2591H86.0409C84.6252 52.2591 83.4862 51.1669 83.4862 49.8094C83.4862 48.4519 84.6252 47.3598 86.0409 47.3598H87.744V43.9303C84.4762 43.5016 81.4851 42.2666 78.9836 40.4497L76.4502 42.879L77.653 44.0323C78.6536 44.9816 78.6536 46.533 77.653 47.4925C76.6524 48.4519 75.0345 48.4519 74.0445 47.4925L68.0197 41.7154C67.0213 40.7662 67.0213 39.2147 68.0197 38.2553C69.0171 37.2958 70.6351 37.2958 71.6325 38.2553L72.8364 39.4086L78.9836 11.8093C77.0867 9.41071 72.1817 31.7127 71.7368 28.5792H68.1581V30.2123C68.1581 31.5698 67.0138 32.6619 65.6034 32.6619C64.193 32.6619 63.0487 31.5698 63.0487 30.2123V22.0468C63.0487 20.6893 64.193 19.5971 65.6034 19.5971C67.0138 19.5971 68.1581 20.6893 68.1581 22.0468V23.6799H71.7368C72.1817 20.5464 73.4676 17.6783 75.3645 15.2797L72.8364 12.8504L71.6325 14.0038C70.634 14.9632 69.0171 14.9632 68.0197 14.0038C67.0213 13.0444 67.0213 11.4929 68.0197 10.5437L74.0445 4.7666C75.0345 3.81022 76.6524 3.81022 77.653 4.7666C78.6536 5.72298 78.6536 7.27442 77.653 8.2308L76.4502 9.3852L78.9836 11.8093C81.4851 9.99046 84.4762 8.75748 87.744 8.33083V4.89929H86.0409C84.6252 4.89929 83.4862 3.80307 83.4862 2.44964ZM83.4862 17.9641C80.6654 17.9641 78.3769 20.1585 78.3769 22.8633C78.3769 25.5682 80.6654 27.7626 83.4862 27.7626C86.307 27.7626 88.5956 25.5682 88.5956 22.8633C88.5956 20.1585 86.307 17.9641 83.4862 17.9641ZM95.4081 33.4785C96.8238 33.4785 97.9628 32.3863 97.9628 31.0288C97.9628 29.6713 96.8238 28.5792 95.4081 28.5792C93.9924 28.5792 92.8534 29.6713 92.8534 31.0288C92.8534 32.3863 93.9924 33.4785 95.4081 33.4785Z" fill="#0A2942"/>
<path d="M9.74772 47.1377C7.40162 47.1377 5.51229 46.7395 4.07972 45.9432C2.66791 45.1269 1.62981 43.8628 0.965429 42.1507C0.32181 40.4386 0 38.179 0 35.3719C0 31.4102 0.747429 28.4936 2.24229 26.6223C3.75791 24.731 6.25972 23.7853 9.74772 23.7853C11.0765 23.7853 12.1457 23.9147 12.9554 24.1735C13.7859 24.4124 14.6579 24.8703 15.5714 25.5472L14.8863 29.3397L14.2634 29.6085C13.7236 29.0112 13.1215 28.5932 12.4571 28.3543C11.7928 28.1154 10.8896 27.9959 9.74772 27.9959C8.48124 27.9959 7.47429 28.2448 6.72686 28.7425C6.00019 29.2203 5.47076 29.9867 5.13857 31.0419C4.82714 32.097 4.67143 33.5404 4.67143 35.3719C4.67143 37.3229 4.82714 38.8459 5.13857 39.9409C5.45 41.0159 5.96905 41.7824 6.69572 42.2403C7.42238 42.6981 8.43972 42.9271 9.74772 42.9271C11.0765 42.9271 12.1769 42.7877 13.0489 42.509C13.9209 42.2303 14.6475 41.7923 15.2289 41.1951L15.8829 41.434L14.9486 44.9279C14.2011 45.6844 13.4018 46.2418 12.5506 46.6002C11.7201 46.9585 10.7858 47.1377 9.74772 47.1377Z" fill="#0A2942"/>
<path d="M36.4788 46.6599H31.0288L30.3125 42.1805V42.1208L22.3399 42.1805L21.6236 46.6599H16.7965L18.3225 42.1805L22.153 28.7425L23.0873 24.2631H29.9699L30.9042 28.7425L34.9528 42.1805L36.4788 46.6599ZM29.0668 38.0297L26.2328 28.4737L23.5233 38.0595L29.0668 38.0297Z" fill="#0A2942"/>
<path d="M52.7679 28.5036L52.4254 28.5932L49.6225 28.2348H46.7574V42.1805L47.0688 46.6599H41.9614L42.2728 42.1805V28.2348H39.4076L36.6048 28.5932L36.2622 28.5036L36.9474 24.2631H52.0828L52.7679 28.5036Z" fill="#0A2942"/>
<path d="M9.74772 77C7.40162 77 5.51229 76.6018 4.07972 75.8055C2.66791 74.9893 1.62981 73.7251 0.965429 72.013C0.32181 70.3009 0 68.0413 0 65.2342C0 61.2725 0.747429 58.3559 2.24229 56.4846C3.75791 54.5933 6.25972 53.6477 9.74772 53.6477C11.0765 53.6477 12.1457 53.7771 12.9554 54.0359C13.7859 54.2748 14.6579 54.7327 15.5714 55.4095L14.8863 59.2021L14.2634 59.4708C13.7236 58.8736 13.1215 58.4555 12.4571 58.2166C11.7928 57.9777 10.8896 57.8582 9.74772 57.8582C8.48124 57.8582 7.47429 58.1071 6.72686 58.6048C6.00019 59.0826 5.47076 59.8491 5.13857 60.9042C4.82714 61.9593 4.67143 63.4027 4.67143 65.2342C4.67143 67.1852 4.82714 68.7082 5.13857 69.8032C5.45 70.8782 5.96905 71.6447 6.69572 72.1026C7.42238 72.5605 8.43972 72.7894 9.74772 72.7894C11.0765 72.7894 12.1769 72.6501 13.0489 72.3713C13.9209 72.0926 14.6475 71.6546 15.2289 71.0574L15.8829 71.2963L14.9486 74.7902C14.2011 75.5467 13.4018 76.1041 12.5506 76.4625C11.7201 76.8208 10.7858 77 9.74772 77Z" fill="#0A2942"/>
<path d="M26.8245 77C23.7932 77 21.5198 76.0046 20.0042 74.0138C18.4886 72.003 17.7308 69.0765 17.7308 65.2342C17.7308 61.4318 18.4782 58.555 19.973 56.604C21.4887 54.6331 23.7725 53.6477 26.8245 53.6477C29.8765 53.6477 32.1499 54.6331 33.6448 56.604C35.1604 58.555 35.9182 61.4318 35.9182 65.2342C35.9182 69.0765 35.1604 72.003 33.6448 74.0138C32.1291 76.0046 29.8557 77 26.8245 77ZM26.8245 72.7894C27.9456 72.7894 28.8176 72.5605 29.4405 72.1026C30.0841 71.6248 30.5408 70.8484 30.8108 69.7733C31.1014 68.6784 31.2468 67.1653 31.2468 65.2342C31.2468 63.3629 31.1014 61.8996 30.8108 60.8445C30.5408 59.7893 30.0841 59.0328 29.4405 58.5749C28.7968 58.0971 27.9248 57.8582 26.8245 57.8582C25.7241 57.8582 24.8521 58.0971 24.2085 58.5749C23.5648 59.0328 23.0977 59.7893 22.807 60.8445C22.5371 61.8996 22.4022 63.3629 22.4022 65.2342C22.4022 67.1653 22.5371 68.6784 22.807 69.7733C23.0977 70.8484 23.5545 71.6248 24.1773 72.1026C24.8209 72.5605 25.7033 72.7894 26.8245 72.7894Z" fill="#0A2942"/>
<path d="M56.0783 54.1255L54.5523 58.6048L50.9086 72.0429L49.9743 76.5222H43.0917L42.1575 72.0429L38.5449 58.6048L37.0189 54.1255H42.4689L43.1852 58.6048L46.7043 71.5053L50.2546 58.6048L50.9709 54.1255H56.0783Z" fill="#0A2942"/>
<path d="M58.4162 72.0429V58.4555L58.1048 54.1255H63.2122L62.9008 58.4555V72.0429L63.2122 76.5222H58.1048L58.4162 72.0429Z" fill="#0A2942"/>
<path d="M74.9898 54.1255C78.1249 54.1255 80.4191 55.0512 81.8724 56.9026C83.3465 58.7342 84.0835 61.5114 84.0835 65.2342C84.0835 68.9969 83.3465 71.8239 81.8724 73.7151C80.3983 75.5865 78.1041 76.5222 74.9898 76.5222H66.955L67.2664 72.0429V58.4555L66.955 54.1255H74.9898ZM74.9898 72.4012C76.0902 72.4012 76.9622 72.1722 77.6058 71.7144C78.2495 71.2366 78.7062 70.4801 78.9761 69.4448C79.2668 68.4096 79.4121 67.0061 79.4121 65.2342C79.4121 63.3828 79.2668 61.9593 78.9761 60.9639C78.7062 59.9685 78.2495 59.2717 77.6058 58.8736C76.983 58.4555 76.111 58.2465 74.9898 58.2465H71.751V72.4012H74.9898Z" fill="#0A2942"/>
<path d="M86.3706 65.3238H99.6063V69.3552H86.3706V65.3238Z" fill="#0A2942"/>
<path d="M101.852 58.8138L107.551 54.1255H110.977V72.0429L111.289 76.5222H106.306L106.617 72.0429V60.1576L101.79 63.2036L101.323 62.9946L101.852 58.8138Z" fill="#0A2942"/>
<path d="M121.547 53.6477C123.498 53.6477 125.045 54.0558 126.187 54.872C127.35 55.6683 128.18 56.8827 128.678 58.5152C129.177 60.1477 129.426 62.248 129.426 64.8162C129.426 68.6385 128.72 71.5949 127.308 73.6853C125.917 75.7557 123.779 76.791 120.893 76.791C119.772 76.791 118.785 76.6914 117.934 76.4923C117.083 76.2733 116.252 75.915 115.443 75.4173L116.19 71.6845L116.533 71.7442C117.156 72.1026 117.789 72.3614 118.432 72.5206C119.076 72.6799 119.896 72.7596 120.893 72.7596C121.848 72.7596 122.606 72.5704 123.166 72.1922C123.747 71.8139 124.173 71.2067 124.443 70.3706C124.713 69.5344 124.879 68.3997 124.941 66.9663C124.36 67.464 123.737 67.8223 123.073 68.0413C122.408 68.2603 121.567 68.3698 120.55 68.3698C118.391 68.3698 116.782 67.7725 115.723 66.578C114.685 65.3835 114.166 63.5221 114.166 60.9938C114.166 59.4808 114.467 58.1768 115.069 57.0818C115.692 55.967 116.564 55.1209 117.685 54.5435C118.806 53.9463 120.093 53.6477 121.547 53.6477ZM121.827 64.2488C123.218 64.2488 124.256 63.9004 124.941 63.2036V62.1286C124.941 60.7748 124.661 59.7197 124.1 58.9632C123.561 58.2066 122.803 57.8284 121.827 57.8284C120.727 57.8284 119.917 58.0772 119.398 58.5749C118.9 59.0527 118.65 59.859 118.65 60.9938C118.65 62.2082 118.889 63.0543 119.367 63.5321C119.844 64.0099 120.664 64.2488 121.827 64.2488Z" fill="#0A2942"/>
</g>
</svg>
