<?xml version="1.0" encoding="UTF-8" standalone="no"?><svg width="710" height="877" viewBox="0 0 710 877" fill="none" xmlns="http://www.w3.org/2000/svg">
<path d="M300 200L300 -1.82747e-06" stroke="black" stroke-width="5" stroke-dasharray="10 10"/>
<path d="M302.907 862.318L152.454 662.659L1.99996 463" stroke="black" stroke-width="5" stroke-dasharray="10 10"/>
<path d="M0 460L450 460" stroke="black" stroke-width="5" stroke-dasharray="10 10"/>
<line x1="447.835" y1="461.058" x2="297.835" y2="201.25" stroke="black" stroke-width="5" stroke-dasharray="10 10"/>
<path d="M710 862L685 876.434V847.566L710 862ZM695.357 864.5H685.595V859.5H695.357V864.5ZM675.833 864.5H666.071V859.5H675.833V864.5ZM656.31 864.5H646.548V859.5H656.31V864.5ZM636.786 864.5H627.024V859.5H636.786V864.5ZM617.262 864.5H607.5V859.5H617.262V864.5ZM597.738 864.5H587.976V859.5H597.738V864.5ZM578.214 864.5H568.452V859.5H578.214V864.5ZM558.69 864.5H548.929V859.5H558.69V864.5ZM539.167 864.5H529.405V859.5H539.167V864.5ZM519.643 864.5H509.881V859.5H519.643V864.5ZM500.119 864.5H490.357V859.5H500.119V864.5ZM480.595 864.5H470.833V859.5H480.595V864.5ZM461.071 864.5H451.31V859.5H461.071V864.5ZM441.548 864.5H431.786V859.5H441.548V864.5ZM422.024 864.5H412.262V859.5H422.024V864.5ZM402.5 864.5H392.738V859.5H402.5V864.5ZM382.976 864.5H373.214V859.5H382.976V864.5ZM363.452 864.5H353.691V859.5H363.452V864.5ZM343.929 864.5H334.167V859.5H343.929V864.5ZM324.405 864.5H314.643V859.5H324.405V864.5ZM304.881 864.5H300V859.5H304.881V864.5Z" fill="black"/>
</svg>
