<?xml version="1.0" encoding="UTF-8" standalone="no"?><svg width="1411" height="716" viewBox="0 0 1411 716" fill="none" xmlns="http://www.w3.org/2000/svg">
<path d="M1410.93 448.051L1385.85 433.756L1386.01 462.623L1410.93 448.051ZM0.941029 226.056L3.9091 230L7.90403 226.993L4.93596 223.049L0.941029 226.056ZM9.84525 237.887L15.7814 245.774L19.7763 242.767L13.8402 234.88L9.84525 237.887ZM21.7175 253.661L27.6537 261.548L31.6486 258.541L25.7125 250.654L21.7175 253.661ZM33.5898 269.435L39.526 277.322L43.5209 274.316L37.5848 266.428L33.5898 269.435ZM45.4621 285.209L51.3983 293.096L55.3932 290.09L49.4571 282.203L45.4621 285.209ZM57.3344 300.984L63.2706 308.871L67.2655 305.864L61.3294 297.977L57.3344 300.984ZM69.2067 316.758L75.1429 324.645L79.1378 321.638L73.2016 313.751L69.2067 316.758ZM81.079 332.532L87.0152 340.419L91.0101 337.412L85.0739 329.525L81.079 332.532ZM92.9513 348.306L98.8875 356.193L102.882 353.187L96.9462 345.299L92.9513 348.306ZM104.824 364.08L110.76 371.967L114.755 368.961L108.819 361.074L104.824 364.08ZM116.696 379.855L122.632 387.742L126.627 384.735L120.691 376.848L116.696 379.855ZM128.568 395.629L134.504 403.516L138.499 400.509L132.563 392.622L128.568 395.629ZM140.44 411.403L146.377 419.29L150.372 416.283L144.435 408.396L140.44 411.403ZM152.313 427.177L158.249 435.064L162.244 432.058L156.308 424.17L152.313 427.177ZM164.185 442.951L170.121 450.838L174.116 447.832L168.18 439.945L164.185 442.951ZM176.057 458.726L181.993 466.613L185.988 463.606L180.052 455.719L176.057 458.726ZM187.93 474.5L193.866 482.387L197.861 479.38L191.925 471.493L187.93 474.5ZM199.802 490.274L205.738 498.161L209.733 495.154L203.797 487.267L199.802 490.274ZM211.674 506.048L217.61 513.935L221.605 510.928L215.669 503.041L211.674 506.048ZM223.546 521.822L229.483 529.709L233.478 526.703L227.541 518.816L223.546 521.822ZM235.419 537.596L241.355 545.484L245.35 542.477L239.414 534.59L235.419 537.596ZM247.291 553.371L253.227 561.258L257.222 558.251L251.286 550.364L247.291 553.371ZM259.163 569.145L265.099 577.032L269.094 574.025L263.158 566.138L259.163 569.145ZM271.036 584.919L276.972 592.806L280.967 589.799L275.031 581.912L271.036 584.919ZM282.908 600.693L288.844 608.58L292.839 605.573L286.903 597.686L282.908 600.693ZM294.78 616.467L300.716 624.354L304.711 621.348L298.775 613.461L294.78 616.467ZM306.652 632.242L312.589 640.129L316.583 637.122L310.647 629.235L306.652 632.242ZM318.525 648.016L324.461 655.903L328.456 652.896L322.52 645.009L318.525 648.016ZM330.397 663.79L336.333 671.677L340.328 668.67L334.392 660.783L330.397 663.79ZM342.269 679.564L348.206 687.451L352.2 684.445L346.264 676.557L342.269 679.564ZM354.142 695.338L360.078 703.226L364.073 700.219L358.137 692.332L354.142 695.338ZM366.014 711.113L368.982 715.056L372.977 712.05L370.009 708.106L366.014 711.113ZM368.974 715.052L373.773 713.732L372.447 708.911L367.648 710.231L368.974 715.052ZM383.37 711.092L392.967 708.452L391.641 703.631L382.044 706.271L383.37 711.092ZM402.564 705.812L412.162 703.172L410.835 698.351L401.238 700.991L402.564 705.812ZM421.759 700.532L431.356 697.892L430.03 693.071L420.433 695.711L421.759 700.532ZM440.953 695.252L450.55 692.612L449.224 687.791L439.627 690.431L440.953 695.252ZM460.147 689.972L469.744 687.332L468.418 682.511L458.821 685.151L460.147 689.972ZM479.342 684.692L488.939 682.052L487.613 677.231L478.015 679.871L479.342 684.692ZM498.536 679.412L508.133 676.772L506.807 671.951L497.21 674.591L498.536 679.412ZM517.73 674.132L527.327 671.492L526.001 666.671L516.404 669.311L517.73 674.132ZM536.924 668.852L546.522 666.212L545.195 661.391L535.598 664.031L536.924 668.852ZM556.119 663.572L565.716 660.932L564.39 656.111L554.793 658.751L556.119 663.572ZM575.313 658.292L584.91 655.652L583.584 650.831L573.987 653.471L575.313 658.292ZM594.507 653.012L604.104 650.372L602.778 645.551L593.181 648.191L594.507 653.012ZM613.701 647.732L623.299 645.092L621.973 640.271L612.375 642.911L613.701 647.732ZM632.896 642.452L642.493 639.812L641.167 634.991L631.57 637.631L632.896 642.452ZM652.09 637.172L661.687 634.532L660.361 629.711L650.764 632.351L652.09 637.172ZM671.284 631.892L680.882 629.252L679.555 624.431L669.958 627.071L671.284 631.892ZM690.479 626.612L700.076 623.972L698.75 619.151L689.153 621.791L690.479 626.612ZM709.673 621.332L719.27 618.692L717.944 613.871L708.347 616.511L709.673 621.332ZM728.867 616.052L738.465 613.412L737.138 608.591L727.541 611.231L728.867 616.052ZM748.062 610.772L757.659 608.132L756.333 603.311L746.736 605.951L748.062 610.772ZM767.256 605.492L776.853 602.852L775.527 598.031L765.93 600.671L767.256 605.492ZM786.45 600.212L796.047 597.572L794.721 592.751L785.124 595.391L786.45 600.212ZM805.645 594.932L815.242 592.292L813.916 587.471L804.318 590.111L805.645 594.932ZM824.839 589.652L834.436 587.012L833.11 582.191L823.513 584.831L824.839 589.652ZM844.033 584.372L853.63 581.732L852.304 576.911L842.707 579.551L844.033 584.372ZM863.228 579.092L872.825 576.452L871.499 571.631L861.901 574.271L863.228 579.092ZM882.422 573.812L892.019 571.172L890.693 566.351L881.096 568.991L882.422 573.812ZM901.616 568.532L911.213 565.892L909.887 561.071L900.29 563.711L901.616 568.532ZM920.81 563.252L930.407 560.612L929.081 555.791L919.484 558.431L920.81 563.252ZM940.005 557.972L949.602 555.332L948.276 550.511L938.678 553.151L940.005 557.972ZM959.199 552.692L968.796 550.052L967.47 545.231L957.873 547.871L959.199 552.692ZM978.393 547.412L987.99 544.772L986.664 539.951L977.067 542.591L978.393 547.412ZM997.587 542.132L1007.18 539.492L1005.86 534.671L996.261 537.311L997.587 542.132ZM1016.78 536.852L1026.38 534.212L1025.05 529.391L1015.46 532.031L1016.78 536.852ZM1035.98 531.572L1045.57 528.932L1044.25 524.111L1034.65 526.751L1035.98 531.572ZM1055.17 526.292L1064.77 523.652L1063.44 518.831L1053.84 521.471L1055.17 526.292ZM1074.36 521.012L1083.96 518.372L1082.64 513.551L1073.04 516.191L1074.36 521.012ZM1093.56 515.732L1103.16 513.092L1101.83 508.271L1092.23 510.911L1093.56 515.732ZM1112.75 510.452L1122.35 507.812L1121.02 502.991L1111.43 505.631L1112.75 510.452ZM1131.95 505.172L1141.54 502.532L1140.22 497.711L1130.62 500.351L1131.95 505.172ZM1151.14 499.892L1160.74 497.252L1159.41 492.431L1149.82 495.071L1151.14 499.892ZM1170.34 494.612L1179.93 491.972L1178.61 487.151L1169.01 489.791L1170.34 494.612ZM1189.53 489.332L1199.13 486.692L1197.8 481.871L1188.2 484.511L1189.53 489.332ZM1208.72 484.052L1218.32 481.412L1216.99 476.591L1207.4 479.231L1208.72 484.052ZM1227.92 478.772L1237.52 476.132L1236.19 471.311L1226.59 473.951L1227.92 478.772ZM1247.11 473.492L1256.71 470.852L1255.38 466.031L1245.79 468.671L1247.11 473.492ZM1266.31 468.212L1275.9 465.572L1274.58 460.751L1264.98 463.391L1266.31 468.212ZM1285.5 462.932L1295.1 460.292L1293.77 455.471L1284.17 458.111L1285.5 462.932ZM1304.7 457.652L1314.29 455.012L1312.97 450.191L1303.37 452.831L1304.7 457.652ZM1323.89 452.372L1328.69 451.052L1327.36 446.231L1322.56 447.551L1323.89 452.372ZM1320.68 451.051L1325.2 451.026L1325.17 446.026L1320.66 446.051L1320.68 451.051ZM1334.22 450.976L1343.25 450.926L1343.22 445.926L1334.19 445.976L1334.22 450.976ZM1352.27 450.876L1361.3 450.826L1361.27 445.826L1352.25 445.876L1352.27 450.876ZM1370.32 450.776L1379.35 450.726L1379.32 445.726L1370.3 445.776L1370.32 450.776ZM1388.38 450.676L1397.4 450.626L1397.37 445.626L1388.35 445.676L1388.38 450.676ZM970.193 0V5.04378H975.193V0H970.193ZM970.193 15.1313V25.2189H975.193V15.1313H970.193ZM970.193 35.3064V45.394H975.193V35.3064H970.193ZM970.193 55.4815V65.5691H975.193V55.4815H970.193ZM970.193 75.6566V85.7442H975.193V75.6566H970.193ZM970.193 95.8317V105.919H975.193V95.8317H970.193ZM970.193 116.007V126.094H975.193V116.007H970.193ZM970.193 136.182V146.27H975.193V136.182H970.193ZM970.193 156.357V166.445H975.193V156.357H970.193ZM970.193 176.532V186.62H975.193V176.532H970.193ZM970.193 196.707V206.795H975.193V196.707H970.193ZM970.193 216.882V226.97H975.193V216.882H970.193ZM970.193 237.058V242.101H975.193V237.058H970.193ZM0.439221 231.007C2.10117 231.319 3.76028 231.63 5.41654 231.939L6.33419 227.024C4.67949 226.715 3.02195 226.405 1.36156 226.093L0.439221 231.007ZM15.3202 233.778C18.6101 234.386 21.8887 234.988 25.1562 235.585L26.0548 230.667C22.7905 230.07 19.5151 229.469 16.2283 228.862L15.3202 233.778ZM34.9252 237.36C38.1798 237.948 41.4232 238.531 44.6556 239.108L45.5347 234.186C42.3056 233.609 39.0654 233.027 35.8141 232.44L34.9252 237.36ZM54.6014 240.874C57.905 241.457 61.1969 242.034 64.4774 242.606L65.3359 237.68C62.0589 237.109 58.7704 236.532 55.4702 235.95L54.6014 240.874ZM74.2842 244.304C77.5417 244.865 80.7877 245.42 84.0224 245.969L84.8598 241.04C81.6287 240.491 78.3862 239.937 75.1322 239.377L74.2842 244.304ZM93.9451 247.644C97.2596 248.199 100.562 248.749 103.853 249.292L104.668 244.359C101.381 243.816 98.0823 243.267 94.7715 242.712L93.9451 247.644ZM113.689 250.906C116.956 251.438 120.211 251.965 123.455 252.485L124.247 247.548C121.008 247.029 117.756 246.503 114.493 245.971L113.689 250.906ZM133.359 254.063C136.682 254.588 139.992 255.107 143.29 255.62L144.058 250.679C140.764 250.167 137.458 249.648 134.14 249.124L133.359 254.063ZM153.147 257.14C156.421 257.641 159.682 258.135 162.932 258.624L163.676 253.68C160.43 253.192 157.173 252.698 153.903 252.197L153.147 257.14ZM172.848 260.103C176.175 260.594 179.49 261.079 182.792 261.558L183.51 256.61C180.212 256.132 176.902 255.647 173.579 255.156L172.848 260.103ZM192.661 262.976C195.938 263.442 199.203 263.902 202.456 264.356L203.147 259.404C199.898 258.951 196.638 258.492 193.365 258.026L192.661 262.976ZM212.412 265.731C215.74 266.186 219.056 266.634 222.359 267.076L223.021 262.12C219.723 261.679 216.412 261.231 213.089 260.777L212.412 265.731ZM232.229 268.382C235.507 268.81 238.773 269.233 242.026 269.649L242.66 264.689C239.412 264.274 236.151 263.852 232.878 263.424L232.229 268.382ZM252.045 270.914C255.371 271.328 258.684 271.736 261.985 272.138L262.588 267.174C259.293 266.774 255.985 266.366 252.663 265.952L252.045 270.914ZM271.848 273.321C275.157 273.713 278.453 274.098 281.736 274.476L282.308 269.509C279.03 269.131 275.739 268.747 272.436 268.356L271.848 273.321ZM291.739 275.612C295.059 275.983 298.367 276.347 301.662 276.705L302.201 271.734C298.912 271.377 295.61 271.013 292.294 270.643L291.739 275.612ZM311.507 277.756C314.853 278.108 318.185 278.452 321.504 278.789L322.009 273.814C318.696 273.478 315.37 273.134 312.03 272.783L311.507 277.756ZM331.481 279.784C334.793 280.109 338.092 280.426 341.378 280.736L341.847 275.758C338.568 275.449 335.275 275.132 331.968 274.808L331.481 279.784ZM351.293 281.654C354.647 281.958 357.988 282.254 361.315 282.544L361.747 277.562C358.427 277.274 355.093 276.978 351.745 276.674L351.293 281.654ZM371.255 283.389C374.555 283.663 377.842 283.93 381.116 284.189L381.511 279.205C378.244 278.946 374.963 278.679 371.669 278.406L371.255 283.389ZM391.171 284.965C394.51 285.217 397.835 285.46 401.147 285.696L401.502 280.708C398.197 280.473 394.878 280.23 391.546 279.98L391.171 284.965ZM411.043 286.38C414.394 286.605 417.731 286.822 421.055 287.031L421.369 282.041C418.052 281.832 414.722 281.616 411.378 281.391L411.043 286.38ZM431.058 287.639C434.378 287.834 437.686 288.021 440.98 288.2L441.252 283.207C437.964 283.029 434.664 282.842 431.35 282.648L431.058 287.639ZM450.967 288.721C454.321 288.889 457.662 289.048 460.989 289.199L461.216 284.204C457.896 284.053 454.563 283.894 451.217 283.727L450.967 288.721ZM470.93 289.629C474.269 289.766 477.595 289.895 480.907 290.015L481.089 285.018C477.784 284.898 474.466 284.77 471.134 284.633L470.93 289.629ZM490.938 290.357C494.269 290.462 497.586 290.559 500.89 290.648L501.025 285.65C497.729 285.561 494.419 285.464 491.097 285.359L490.938 290.357ZM510.87 290.894C514.228 290.968 517.572 291.034 520.903 291.091L520.99 286.092C517.667 286.035 514.331 285.969 510.981 285.895L510.87 290.894ZM530.858 291.239C534.202 291.28 537.532 291.313 540.85 291.337L540.887 286.337C537.577 286.313 534.255 286.28 530.92 286.239L530.858 291.239ZM550.877 291.385C554.207 291.392 557.523 291.391 560.828 291.382L560.813 286.382C557.518 286.391 554.209 286.392 550.888 286.385L550.877 291.385ZM570.837 291.327C574.188 291.3 577.526 291.264 580.852 291.22L580.785 286.22C577.468 286.265 574.139 286.3 570.797 286.327L570.837 291.327ZM590.792 291.061C594.148 290.999 597.491 290.928 600.822 290.848L600.702 285.849C597.38 285.929 594.046 286 590.699 286.062L590.792 291.061ZM610.818 290.581C614.141 290.483 617.452 290.377 620.752 290.262L620.578 285.265C617.287 285.38 613.985 285.486 610.671 285.583L610.818 290.581ZM630.793 289.885C634.129 289.751 637.453 289.607 640.766 289.456L640.537 284.461C637.233 284.612 633.918 284.755 630.592 284.889L630.793 289.885ZM650.73 288.972C654.077 288.8 657.414 288.619 660.74 288.429L660.456 283.437C657.139 283.626 653.812 283.807 650.473 283.978L650.73 288.972ZM670.687 287.835C674.026 287.626 677.356 287.409 680.675 287.182L680.335 282.194C677.025 282.42 673.705 282.637 670.375 282.845L670.687 287.835ZM690.652 286.474C693.97 286.23 697.279 285.976 700.578 285.714L700.182 280.73C696.892 280.991 693.593 281.244 690.284 281.488L690.652 286.474ZM710.577 284.892C713.9 284.61 717.215 284.319 720.521 284.019L720.069 279.039C716.773 279.338 713.468 279.628 710.153 279.91L710.577 284.892ZM730.467 283.09C733.795 282.769 737.115 282.441 740.427 282.103L739.92 277.129C736.618 277.465 733.307 277.793 729.988 278.113L730.467 283.09ZM750.338 281.067C753.665 280.71 756.984 280.344 760.295 279.971L759.735 275.002C756.432 275.375 753.122 275.739 749.805 276.096L750.338 281.067ZM770.219 278.824C773.53 278.432 776.834 278.032 780.131 277.624L779.518 272.662C776.229 273.069 772.933 273.468 769.631 273.858L770.219 278.824ZM790.058 276.37C793.361 275.943 796.658 275.509 799.949 275.067L799.283 270.112C796 270.553 792.712 270.986 789.418 271.411L790.058 276.37ZM809.862 273.71C813.164 273.249 816.461 272.78 819.753 272.304L819.038 267.356C815.753 267.831 812.465 268.298 809.171 268.758L809.862 273.71ZM829.634 270.85C832.933 270.356 836.228 269.855 839.519 269.346L838.755 264.405C835.472 264.913 832.185 265.413 828.894 265.905L829.634 270.85ZM849.382 267.798C852.674 267.273 855.964 266.741 859.25 266.201L858.44 261.267C855.161 261.806 851.879 262.337 848.594 262.86L849.382 267.798ZM869.105 264.561C872.39 264.007 875.671 263.446 878.951 262.878L878.098 257.952C874.825 258.518 871.551 259.078 868.274 259.631L869.105 264.561ZM888.793 261.153C892.072 260.571 895.35 259.982 898.627 259.387L897.733 254.467C894.463 255.061 891.192 255.649 887.919 256.23L888.793 261.153ZM908.449 257.582C911.723 256.974 914.996 256.36 918.269 255.739L917.338 250.827C914.07 251.446 910.803 252.06 907.536 252.666L908.449 257.582ZM928.079 253.861C931.345 253.229 934.612 252.591 937.88 251.948L936.914 247.042C933.651 247.685 930.39 248.321 927.13 248.952L928.079 253.861ZM947.688 249.999C950.945 249.346 954.204 248.688 957.465 248.024L956.467 243.124C953.211 243.787 949.958 244.445 946.706 245.097L947.688 249.999ZM967.254 246.015C968.887 245.677 970.521 245.338 972.156 244.998L971.136 240.103C969.504 240.443 967.873 240.781 966.242 241.118L967.254 246.015Z" fill="black"/>
</svg>
