<?xml version="1.0" encoding="UTF-8" standalone="no"?><svg width="479" height="1600" viewBox="0 0 479 1600" fill="none" xmlns="http://www.w3.org/2000/svg">
<line x1="207.5" y1="1522.02" x2="207.5" y2="222.018" stroke="black" stroke-width="5" stroke-dasharray="10 10"/>
<path d="M460 1531L435 1545.43V1516.57L460 1531ZM444.375 1533.5H433.958V1528.5H444.375V1533.5ZM423.542 1533.5H413.125V1528.5H423.542V1533.5ZM402.708 1533.5H392.292V1528.5H402.708V1533.5ZM381.875 1533.5H371.458V1528.5H381.875V1533.5ZM361.042 1533.5H350.625V1528.5H361.042V1533.5ZM340.208 1533.5H329.792V1528.5H340.208V1533.5ZM319.375 1533.5H308.958V1528.5H319.375V1533.5ZM298.542 1533.5H288.125V1528.5H298.542V1533.5ZM277.708 1533.5H267.292V1528.5H277.708V1533.5ZM256.875 1533.5H246.458V1528.5H256.875V1533.5ZM236.042 1533.5H225.625V1528.5H236.042V1533.5ZM215.208 1533.5H210V1528.5H215.208V1533.5Z" fill="black"/>
</svg>
