<?xml version="1.0" encoding="UTF-8" standalone="no"?><svg width="72" height="58" viewBox="0 0 72 58" fill="none" xmlns="http://www.w3.org/2000/svg">
<rect x="0.887695" width="71.0682" height="57.3115" fill="#75EEB7"/>
<path d="M36.7207 33.314C38.2176 33.314 39.4081 32.1867 39.4081 30.7731C39.4081 29.3595 38.2176 28.2322 36.7207 28.2322C35.2237 28.2322 34.0332 29.3595 34.0332 30.7731C34.0332 32.1867 35.2237 33.314 36.7207 33.314Z" fill="black"/>
<path d="M44.0218 28.9543C43.8107 27.9789 43.3983 27.0524 42.808 26.2279C42.228 25.4168 41.4891 24.7181 40.6312 24.1698C39.759 23.6119 38.7791 23.222 37.7475 23.0222C37.2056 22.9183 36.6539 22.8672 36.101 22.8697V21.1741L32.5401 23.715L36.101 26.2559V24.5636C36.5346 24.5619 36.9682 24.6009 37.3865 24.6822C38.1883 24.8376 38.9499 25.1406 39.6278 25.5741C40.2965 26.0003 40.8719 26.5444 41.3227 27.1765C42.0227 28.155 42.3959 29.3095 42.3941 30.4907C42.394 31.2834 42.2265 32.068 41.9014 32.7987C41.7433 33.1507 41.5502 33.4876 41.3245 33.8049C41.098 34.1203 40.8406 34.4149 40.5559 34.6849C39.6888 35.5032 38.5879 36.0646 37.3883 36.3001C36.554 36.4593 35.6945 36.4593 34.8603 36.3001C34.0581 36.1446 33.2962 35.8412 32.6181 35.4074C31.9502 34.9815 31.3754 34.438 30.925 33.8066C30.2258 32.8271 29.8524 31.6724 29.8527 30.4907H28.061C28.062 32.0099 28.542 33.4944 29.4397 34.7544C30.0201 35.5642 30.7582 36.2621 31.6147 36.8108C32.9456 37.6624 34.5164 38.1162 36.1234 38.1134C36.6692 38.1134 37.2136 38.0615 37.7484 37.9584C38.7793 37.7572 39.7585 37.3673 40.6312 36.8108C41.0596 36.5378 41.4589 36.2261 41.8235 35.88C42.1885 35.5339 42.5185 35.1562 42.8089 34.7518C43.7089 33.4939 44.1885 32.0094 44.1858 30.4907C44.1857 29.9747 44.1308 29.46 44.0218 28.9543V28.9543Z" fill="black"/>
</svg>
